<mxfile host="app.diagrams.net" agent="Mozilla/5.0 (X11; Linux x86_64) AppleWebKit/537.36 (KHTML, like Gecko) Chrome/134.0.0.0 Safari/537.36" version="26.1.1">
  <diagram name="Страница — 1" id="Rlb4geR-uArXS-s5FVeR">
    <mxGraphModel dx="2431" dy="793" grid="1" gridSize="10" guides="1" tooltips="1" connect="1" arrows="1" fold="1" page="1" pageScale="1" pageWidth="827" pageHeight="1169" math="0" shadow="0">
      <root>
        <mxCell id="0" />
        <mxCell id="1" parent="0" />
        <mxCell id="H-TNr5gwwFv5uBEyfBBC-3" value="" style="group" parent="1" vertex="1" connectable="0">
          <mxGeometry x="-180" y="135" width="300" height="80" as="geometry" />
        </mxCell>
        <mxCell id="H-TNr5gwwFv5uBEyfBBC-1" value="" style="triangle;whiteSpace=wrap;html=1;" parent="H-TNr5gwwFv5uBEyfBBC-3" vertex="1">
          <mxGeometry width="300" height="80" as="geometry" />
        </mxCell>
        <mxCell id="H-TNr5gwwFv5uBEyfBBC-2" value="http - запрос" style="text;html=1;align=center;verticalAlign=middle;whiteSpace=wrap;rounded=0;" parent="H-TNr5gwwFv5uBEyfBBC-3" vertex="1">
          <mxGeometry x="10" y="25" width="140" height="30" as="geometry" />
        </mxCell>
        <mxCell id="sLcExM32GNROcuiAEgF3-15" value="" style="group" parent="1" vertex="1" connectable="0">
          <mxGeometry x="170" y="95" width="300" height="340" as="geometry" />
        </mxCell>
        <mxCell id="sLcExM32GNROcuiAEgF3-13" value="Server" style="text;html=1;align=center;verticalAlign=middle;whiteSpace=wrap;rounded=0;container=0;" parent="sLcExM32GNROcuiAEgF3-15" vertex="1">
          <mxGeometry x="100" width="60" height="30" as="geometry" />
        </mxCell>
        <mxCell id="H-TNr5gwwFv5uBEyfBBC-4" value="" style="rounded=0;whiteSpace=wrap;html=1;container=0;" parent="sLcExM32GNROcuiAEgF3-15" vertex="1">
          <mxGeometry x="90" y="50" width="120" height="60" as="geometry" />
        </mxCell>
        <mxCell id="H-TNr5gwwFv5uBEyfBBC-5" value="&lt;pre style=&quot;background-color:#2b2b2b;color:#a9b7c6;font-family:&#39;JetBrains Mono&#39;,monospace;font-size:9,8pt;&quot;&gt;HttpServer&lt;/pre&gt;" style="text;html=1;align=center;verticalAlign=middle;whiteSpace=wrap;rounded=0;container=0;" parent="sLcExM32GNROcuiAEgF3-15" vertex="1">
          <mxGeometry x="120" y="65" width="60" height="30" as="geometry" />
        </mxCell>
        <mxCell id="sLcExM32GNROcuiAEgF3-1" value="" style="rounded=0;whiteSpace=wrap;html=1;container=0;" parent="sLcExM32GNROcuiAEgF3-15" vertex="1">
          <mxGeometry x="80" y="230" width="150" height="90" as="geometry" />
        </mxCell>
        <mxCell id="sLcExM32GNROcuiAEgF3-3" value="&lt;pre style=&quot;background-color: rgb(43, 43, 43); color: rgb(169, 183, 198); font-family: &amp;quot;JetBrains Mono&amp;quot;, monospace;&quot;&gt;&lt;pre style=&quot;font-family: &amp;quot;JetBrains Mono&amp;quot;, monospace;&quot;&gt;&lt;span style=&quot;color:#ffc66d;&quot;&gt;Server&lt;/span&gt;&lt;/pre&gt;&lt;/pre&gt;&lt;pre style=&quot;background-color: rgb(43, 43, 43); color: rgb(169, 183, 198); font-family: &amp;quot;JetBrains Mono&amp;quot;, monospace;&quot;&gt;ClientManager&lt;/pre&gt;" style="text;html=1;align=center;verticalAlign=middle;whiteSpace=wrap;rounded=0;container=0;" parent="sLcExM32GNROcuiAEgF3-15" vertex="1">
          <mxGeometry x="90" y="245.71" width="120" height="60" as="geometry" />
        </mxCell>
        <mxCell id="e1HhbXOasenDF4UahTZo-16" value="" style="rounded=0;whiteSpace=wrap;html=1;" parent="1" vertex="1">
          <mxGeometry x="240" y="480" width="200" height="80" as="geometry" />
        </mxCell>
        <mxCell id="e1HhbXOasenDF4UahTZo-17" value="&lt;h3 style=&quot;background-color: light-dark(rgb(43, 43, 43), rgb(200, 200, 200)); color: light-dark(rgb(169, 183, 198), rgb(71, 83, 96)); font-family: &amp;quot;JetBrains Mono&amp;quot;, monospace;&quot;&gt;SaveModelSql&lt;/h3&gt;" style="text;html=1;align=center;verticalAlign=middle;whiteSpace=wrap;rounded=0;" parent="1" vertex="1">
          <mxGeometry x="270" y="490" width="130" height="40" as="geometry" />
        </mxCell>
        <mxCell id="e1HhbXOasenDF4UahTZo-19" value="" style="rounded=0;whiteSpace=wrap;html=1;" parent="1" vertex="1">
          <mxGeometry x="240" y="610" width="210" height="80" as="geometry" />
        </mxCell>
        <mxCell id="e1HhbXOasenDF4UahTZo-20" value="&lt;h3&gt;Ngnix&lt;/h3&gt;" style="text;html=1;align=center;verticalAlign=middle;whiteSpace=wrap;rounded=0;" parent="1" vertex="1">
          <mxGeometry x="270" y="635" width="150" height="30" as="geometry" />
        </mxCell>
        <mxCell id="e1HhbXOasenDF4UahTZo-24" value="" style="endArrow=classic;html=1;rounded=0;" parent="1" edge="1">
          <mxGeometry width="50" height="50" relative="1" as="geometry">
            <mxPoint x="310" y="300" as="sourcePoint" />
            <mxPoint x="320" y="220" as="targetPoint" />
            <Array as="points">
              <mxPoint x="310" y="260" />
            </Array>
          </mxGeometry>
        </mxCell>
        <mxCell id="e1HhbXOasenDF4UahTZo-26" value="" style="group" parent="1" vertex="1" connectable="0">
          <mxGeometry x="420" y="150" width="420" height="50" as="geometry" />
        </mxCell>
        <mxCell id="e1HhbXOasenDF4UahTZo-2" value="TCP" style="text;html=1;align=center;verticalAlign=middle;whiteSpace=wrap;rounded=0;" parent="e1HhbXOasenDF4UahTZo-26" vertex="1">
          <mxGeometry x="170" width="60" height="30" as="geometry" />
        </mxCell>
        <mxCell id="e1HhbXOasenDF4UahTZo-25" value="" style="endArrow=classic;html=1;rounded=0;" parent="e1HhbXOasenDF4UahTZo-26" edge="1">
          <mxGeometry width="50" height="50" relative="1" as="geometry">
            <mxPoint y="30" as="sourcePoint" />
            <mxPoint x="420" y="50" as="targetPoint" />
            <Array as="points">
              <mxPoint x="140" y="40" />
            </Array>
          </mxGeometry>
        </mxCell>
        <mxCell id="e1HhbXOasenDF4UahTZo-28" value="" style="group" parent="1" vertex="1" connectable="0">
          <mxGeometry x="460" y="260" width="410" height="110" as="geometry" />
        </mxCell>
        <mxCell id="e1HhbXOasenDF4UahTZo-27" value="" style="endArrow=classic;html=1;rounded=0;" parent="e1HhbXOasenDF4UahTZo-28" edge="1">
          <mxGeometry width="50" height="50" relative="1" as="geometry">
            <mxPoint y="110" as="sourcePoint" />
            <mxPoint x="410" as="targetPoint" />
          </mxGeometry>
        </mxCell>
        <mxCell id="e1HhbXOasenDF4UahTZo-10" value="TCP" style="text;html=1;align=center;verticalAlign=middle;whiteSpace=wrap;rounded=0;" parent="e1HhbXOasenDF4UahTZo-28" vertex="1">
          <mxGeometry x="125" y="20" width="60" height="30" as="geometry" />
        </mxCell>
        <mxCell id="e1HhbXOasenDF4UahTZo-30" value="" style="group" parent="1" vertex="1" connectable="0">
          <mxGeometry x="480" y="380" width="380" height="130" as="geometry" />
        </mxCell>
        <mxCell id="e1HhbXOasenDF4UahTZo-14" value="TCP" style="text;html=1;align=center;verticalAlign=middle;whiteSpace=wrap;rounded=0;" parent="e1HhbXOasenDF4UahTZo-30" vertex="1">
          <mxGeometry x="219.99757575757576" width="58.18181818181819" height="30" as="geometry" />
        </mxCell>
        <mxCell id="e1HhbXOasenDF4UahTZo-29" value="" style="endArrow=classic;html=1;rounded=0;" parent="e1HhbXOasenDF4UahTZo-30" edge="1">
          <mxGeometry width="50" height="50" relative="1" as="geometry">
            <mxPoint x="380" as="sourcePoint" />
            <mxPoint y="130" as="targetPoint" />
          </mxGeometry>
        </mxCell>
        <mxCell id="e1HhbXOasenDF4UahTZo-32" value="" style="group" parent="1" vertex="1" connectable="0">
          <mxGeometry x="500" y="450" width="390" height="190" as="geometry" />
        </mxCell>
        <mxCell id="e1HhbXOasenDF4UahTZo-22" value="UDP" style="text;html=1;align=center;verticalAlign=middle;whiteSpace=wrap;rounded=0;" parent="e1HhbXOasenDF4UahTZo-32" vertex="1">
          <mxGeometry x="70" y="80" width="110" height="30" as="geometry" />
        </mxCell>
        <mxCell id="e1HhbXOasenDF4UahTZo-31" value="" style="endArrow=classic;html=1;rounded=0;" parent="e1HhbXOasenDF4UahTZo-32" edge="1">
          <mxGeometry width="50" height="50" relative="1" as="geometry">
            <mxPoint x="390" as="sourcePoint" />
            <mxPoint y="190" as="targetPoint" />
          </mxGeometry>
        </mxCell>
        <mxCell id="DZhZ3NEIW7f9vNb_lT48-1" value="" style="group" vertex="1" connectable="0" parent="1">
          <mxGeometry x="930" y="200" width="190" height="240" as="geometry" />
        </mxCell>
        <mxCell id="e1HhbXOasenDF4UahTZo-4" value="" style="group" parent="DZhZ3NEIW7f9vNb_lT48-1" vertex="1" connectable="0">
          <mxGeometry width="190" height="60" as="geometry" />
        </mxCell>
        <mxCell id="sLcExM32GNROcuiAEgF3-16" value="" style="rounded=0;whiteSpace=wrap;html=1;container=0;" parent="e1HhbXOasenDF4UahTZo-4" vertex="1">
          <mxGeometry width="190" height="60" as="geometry" />
        </mxCell>
        <mxCell id="sLcExM32GNROcuiAEgF3-17" value="&lt;pre style=&quot;background-color: rgb(43, 43, 43); color: rgb(169, 183, 198); font-family: &amp;quot;JetBrains Mono&amp;quot;, monospace;&quot;&gt;&lt;pre style=&quot;font-family: &amp;quot;JetBrains Mono&amp;quot;, monospace;&quot;&gt;&lt;span style=&quot;color:#ffc66d;&quot;&gt;Client&lt;/span&gt;&lt;/pre&gt;&lt;/pre&gt;" style="text;html=1;align=center;verticalAlign=middle;whiteSpace=wrap;rounded=0;container=0;" parent="e1HhbXOasenDF4UahTZo-4" vertex="1">
          <mxGeometry x="20" y="15" width="150" height="30" as="geometry" />
        </mxCell>
        <mxCell id="e1HhbXOasenDF4UahTZo-5" value="" style="group" parent="DZhZ3NEIW7f9vNb_lT48-1" vertex="1" connectable="0">
          <mxGeometry x="10" y="160" width="180" height="80" as="geometry" />
        </mxCell>
        <mxCell id="sLcExM32GNROcuiAEgF3-7" value="" style="rounded=0;whiteSpace=wrap;html=1;container=0;" parent="e1HhbXOasenDF4UahTZo-5" vertex="1">
          <mxGeometry width="180" height="80" as="geometry" />
        </mxCell>
        <mxCell id="sLcExM32GNROcuiAEgF3-8" value="&lt;pre style=&quot;background-color:#2b2b2b;color:#a9b7c6;font-family:&#39;JetBrains Mono&#39;,monospace;font-size:9,8pt;&quot;&gt;&lt;span style=&quot;color:#ffc66d;&quot;&gt;sendModel&lt;/span&gt;&lt;/pre&gt;" style="text;html=1;align=center;verticalAlign=middle;whiteSpace=wrap;rounded=0;container=0;" parent="e1HhbXOasenDF4UahTZo-5" vertex="1">
          <mxGeometry x="30" y="25" width="110" height="30" as="geometry" />
        </mxCell>
        <mxCell id="DZhZ3NEIW7f9vNb_lT48-2" value="" style="endArrow=classic;html=1;rounded=0;" edge="1" parent="1">
          <mxGeometry width="50" height="50" relative="1" as="geometry">
            <mxPoint x="1010" y="270" as="sourcePoint" />
            <mxPoint x="1010" y="350" as="targetPoint" />
          </mxGeometry>
        </mxCell>
        <mxCell id="DZhZ3NEIW7f9vNb_lT48-9" value="" style="group" vertex="1" connectable="0" parent="1">
          <mxGeometry x="1230" y="400" width="200" height="90" as="geometry" />
        </mxCell>
        <mxCell id="DZhZ3NEIW7f9vNb_lT48-6" value="" style="rounded=0;whiteSpace=wrap;html=1;" vertex="1" parent="DZhZ3NEIW7f9vNb_lT48-9">
          <mxGeometry width="200" height="90" as="geometry" />
        </mxCell>
        <mxCell id="DZhZ3NEIW7f9vNb_lT48-3" value="&lt;pre style=&quot;background-color:#2b2b2b;color:#a9b7c6;font-family:&#39;JetBrains Mono&#39;,monospace;font-size:9,8pt;&quot;&gt;&lt;span style=&quot;color:#ffc66d;&quot;&gt;listenForModel&lt;/span&gt;&lt;/pre&gt;" style="text;html=1;align=center;verticalAlign=middle;whiteSpace=wrap;rounded=0;" vertex="1" parent="DZhZ3NEIW7f9vNb_lT48-9">
          <mxGeometry x="59.15816901408451" y="30" width="81.69014084507042" height="30" as="geometry" />
        </mxCell>
        <mxCell id="DZhZ3NEIW7f9vNb_lT48-10" value="" style="endArrow=classic;html=1;rounded=0;" edge="1" parent="1">
          <mxGeometry width="50" height="50" relative="1" as="geometry">
            <mxPoint x="1150" y="240" as="sourcePoint" />
            <mxPoint x="1260" y="370" as="targetPoint" />
          </mxGeometry>
        </mxCell>
      </root>
    </mxGraphModel>
  </diagram>
</mxfile>
